<svg xmlns="http://www.w3.org/2000/svg" xmlns:xlink="http://www.w3.org/1999/xlink" viewBox="0,0,256,256" width="64px" height="64px" fill-rule="nonzero"><defs><linearGradient x1="32.188" y1="21.083" x2="32.188" y2="57.087" gradientUnits="userSpaceOnUse" id="color-1"><stop offset="0" stop-color="#ffffff"></stop><stop offset="1" stop-color="#ffffff"></stop></linearGradient><linearGradient x1="32.188" y1="21.083" x2="32.188" y2="57.087" gradientUnits="userSpaceOnUse" id="color-2"><stop offset="0" stop-color="#ffffff"></stop><stop offset="1" stop-color="#ffffff"></stop></linearGradient><linearGradient x1="17" y1="6.833" x2="17" y2="54.705" gradientUnits="userSpaceOnUse" id="color-3"><stop offset="0" stop-color="#ffffff"></stop><stop offset="1" stop-color="#ffffff"></stop></linearGradient><linearGradient x1="47" y1="6.833" x2="47" y2="54.705" gradientUnits="userSpaceOnUse" id="color-4"><stop offset="0" stop-color="#ffffff"></stop><stop offset="1" stop-color="#ffffff"></stop></linearGradient><linearGradient x1="32" y1="6.833" x2="32" y2="54.705" gradientUnits="userSpaceOnUse" id="color-5"><stop offset="0" stop-color="#ffffff"></stop><stop offset="1" stop-color="#ffffff"></stop></linearGradient></defs><g fill="none" fill-rule="nonzero" stroke="none" stroke-width="1" stroke-linecap="butt" stroke-linejoin="miter" stroke-miterlimit="10" stroke-dasharray="" stroke-dashoffset="0" font-family="none" font-weight="none" font-size="none" text-anchor="none" style="mix-blend-mode: normal"><g transform="scale(4,4)"><path d="M19,37l1,3l1,-8l0.875,10l1.25,-3l0.5,-10l0.75,10l1,2l1.225,-15.968l2.65,17.968l2.375,-20l0.625,18l0.869,-2.375l1.631,-9.625l1.875,11l0.84,-3.129l0.91,-11.871l1.697,13.625l0.428,1.375l2.125,-8l0.375,6l1,2l0.75,-6l0.5,7l2.125,-4.351v-1.524c-1.125,-1.687 -2.73,-5.125 -4.75,-5.125c-0.5,0 -0.945,0 -1.125,0c-1,0 -0.559,-4.021 -1.5,-5.5c-0.16,-2.024 -1.124,-2.5 -1.625,-2.5c-2,0 -2,5 -2.875,5c-0.869,0 -1.793,-4.016 -2.125,-4.875c-0.242,-0.627 -1,-1.125 -1.75,-1.125c-2.75,0 -1.989,5 -2.625,5c-0.25,0 -0.007,-0.103 -0.625,-1.75c-0.375,-1 -1.125,-1.25 -1.75,-1.25c-2,0 -2.375,3 -3.625,3.875c-3.875,3.5 -3.875,3.375 -4.5,9.125l-1.5,-0.375v1.625l2,6.75z" fill="url(#color-1)"></path><path d="M45.375,44l-0.5,4l-1.375,-5l-2,10l-0.5,-10l-1.362,2.64l-0.263,8.36l-2.345,-10.991l-2.155,9.991l-0.875,-10l-2.75,12l-0.75,-11.996l-0.858,3.075l-0.142,6.921l-2.875,-11l-1.25,10l-1.383,-7.675l-0.992,-0.825v8.5l-1.181,-6.36l-0.819,-2.64v9l-1.375,-7l-0.375,5l-1.343,-3.921l-0.907,-0.954v5.177c2.037,2.158 2.875,4.698 7,4.698c1.448,0 1.942,-1.007 2.75,-1c0.448,0.004 1.174,0.268 1.813,1.284c0.687,1.091 1.565,1.716 2.187,1.716c1.25,0 2,-0.125 2.75,-2c0.381,0.6 0.708,1 1,1c0.914,0 1.555,-1.962 2.375,-2.022c0.302,-0.022 0.451,0.369 0.875,1.022c0.541,0.833 1.625,1 3.125,1c1.395,0 2.478,-1.375 2.75,-3.625c0.377,-1.966 2.695,-2.658 3.75,-4v-0.153z" fill="url(#color-2)"></path><path d="M16,25v28c1.5,0 2,-1 2,-1v-26c0,0 -0.5,-1 -2,-1z" fill="url(#color-3)"></path><path d="M46,26v26c0,0 0.5,1 2,1v-28c-1.5,0 -2,1 -2,1z" fill="url(#color-4)"></path><path d="M53.481,25.454v-1.326c0,-4.853 -2.519,-9.215 -6.397,-12.263c-3.878,-3.049 -9.135,-4.865 -14.899,-4.865c-0.062,0 -0.308,0 -0.37,0c-5.764,0 -11.021,1.816 -14.899,4.864c-3.878,3.049 -6.397,7.411 -6.397,12.263v1.326c-4.315,1.552 -7.519,7.028 -7.519,13.547c0,7.72 4.486,14 10,14h1l-0.004,-28.872c0,-3.634 1.864,-6.979 5.066,-9.496c3.202,-2.517 7.722,-4.124 12.753,-4.124c0.063,0 0.308,0 0.37,0c5.031,0 9.552,1.607 12.753,4.124c3.201,2.517 5.066,5.862 5.066,9.496l-0.004,28.872h1c5.514,0 10,-6.28 10,-14c0,-6.519 -3.204,-11.995 -7.519,-13.546zM5,39c0,-6.108 3.06,-11.154 7,-11.896v23.792c-3.94,-0.742 -7,-5.788 -7,-11.896zM52,50.896v-23.792c3.94,0.742 7,5.788 7,11.896c0,6.108 -3.06,11.154 -7,11.896z" fill="url(#color-5)"></path></g></g></svg>